<svg xmlns="http://www.w3.org/2000/svg" xmlns:xlink="http://www.w3.org/1999/xlink" version="1.1" width="256" height="256" viewBox="0 0 256 256" xml:space="preserve">

<defs>
</defs>
<g style="stroke: none; stroke-width: 0; stroke-dasharray: none; stroke-linecap: butt; stroke-linejoin: miter; stroke-miterlimit: 10; fill: none; fill-rule: nonzero; opacity: 1;" transform="translate(1.4065934065934016 1.4065934065934016) scale(2.81 2.81)" >
	<polygon points="40.32,52.5 47.23,66.96 60.72,32.11 " style="stroke: none; stroke-width: 1; stroke-dasharray: none; stroke-linecap: butt; stroke-linejoin: miter; stroke-miterlimit: 10; fill: rgb(0,0,0); fill-rule: nonzero; opacity: 1;" transform="  matrix(1 0 0 1 0 0) "/>
	<polygon points="57.88,29.29 23.04,42.77 37.5,49.68 " style="stroke: none; stroke-width: 1; stroke-dasharray: none; stroke-linecap: butt; stroke-linejoin: miter; stroke-miterlimit: 10; fill: rgb(0,0,0); fill-rule: nonzero; opacity: 1;" transform="  matrix(1 0 0 1 0 0) "/>
	<path d="M 45 0 C 20.147 0 0 20.147 0 45 c 0 24.853 20.147 45 45 45 s 45 -20.147 45 -45 C 90 20.147 69.853 0 45 0 z M 67.978 24.225 c -0.018 0.156 -0.05 0.309 -0.104 0.458 c -0.005 0.013 -0.004 0.027 -0.009 0.039 l -0.012 0.03 c 0 0 0 0.001 0 0.001 l -18.57 47.969 c -0.288 0.745 -0.991 1.246 -1.789 1.277 C 47.469 74 47.443 74 47.418 74 c -0.769 0 -1.472 -0.44 -1.805 -1.138 L 36.41 53.59 l -19.271 -9.203 c -0.72 -0.344 -1.167 -1.083 -1.137 -1.881 c 0.03 -0.797 0.532 -1.501 1.276 -1.789 l 47.968 -18.57 c 0.001 0 0.002 -0.001 0.003 -0.001 l 0.029 -0.011 c 0.012 -0.005 0.025 -0.004 0.038 -0.009 c 0.149 -0.054 0.303 -0.087 0.459 -0.105 c 0.042 -0.005 0.083 -0.01 0.125 -0.012 c 0.168 -0.008 0.336 -0.001 0.501 0.033 c 0.017 0.004 0.033 0.011 0.05 0.015 c 0.149 0.034 0.292 0.089 0.431 0.158 c 0.039 0.019 0.076 0.038 0.114 0.06 c 0.148 0.086 0.291 0.184 0.418 0.311 c 0.127 0.127 0.225 0.269 0.311 0.418 c 0.022 0.038 0.041 0.076 0.06 0.115 c 0.068 0.138 0.122 0.279 0.156 0.426 c 0.004 0.019 0.013 0.036 0.016 0.055 c 0.033 0.164 0.041 0.332 0.033 0.499 C 67.988 24.141 67.983 24.182 67.978 24.225 z" style="stroke: none; stroke-width: 1; stroke-dasharray: none; stroke-linecap: butt; stroke-linejoin: miter; stroke-miterlimit: 10; fill: rgb(0,0,0); fill-rule: nonzero; opacity: 1;" transform=" matrix(1 0 0 1 0 0) " stroke-linecap="round" />
</g>
</svg>